Mother Fucking Gangbang 2 DVD

White Ghetto Films


Category 	All Sex, Gang Bang
Starring 	Summer Sinn, Olivia Sinclair, Trisha Sterling


Studio 	White Ghetto Films
Discs 	1
Release Date 	23 February 2010

frond
 
http://bayimg.com/iamNLAadF

back
 
http://bayimg.com/IAmnOaadf

screen
 
http://bayimg.com/jamnAAADF

General
Complete name                    : C:\Downloads\Mother Fucking Gangbang 2 DVD\dvd\Mother Fucking Gangbang 2 DVD.avi
Format                           : AVI
Format/Info                      : Audio Video Interleave
File size                        : 874 MiB
Duration                         : 1h 31mn
Overall bit rate                 : 1 339 Kbps
Writing application              : MEncoder SVN-r30881(20100311-gcc4.3.3)
Writing library                  : MPlayer

Video
ID                               : 0
Format                           : MPEG-4 Visual
Format profile                   : Advanced Simple@L5
Format settings, BVOP            : 2
Format settings, QPel            : No
Format settings, GMC             : No warppoints
Format settings, Matrix          : Default (H.263)
Codec ID                         : XVID
Codec ID/Hint                    : XviD
Duration                         : 1h 31mn
Bit rate                         : 1 198 Kbps
Width                            : 720 pixels
Height                           : 480 pixels
Display aspect ratio             : 3:2
Frame rate                       : 25.000 fps
Standard                         : NTSC
Color space                      : YUV
Chroma subsampling               : 4:2:0
Bit depth                        : 8 bits
Scan type                        : Progressive
Compression mode                 : Lossy
Bits/(Pixel*Frame)               : 0.139
Stream size                      : 782 MiB (90%)
Writing library                  : XviD 1.2.1 (UTC 2008-12-04)

Audio
ID                               : 1
Format                           : MPEG Audio
Format version                   : Version 1
Format profile                   : Layer 3
Mode                             : Joint stereo
Mode extension                   : MS Stereo
Codec ID                         : 55
Codec ID/Hint                    : MP3
Duration                         : 1h 31mn
Bit rate mode                    : Constant
Bit rate                         : 128 Kbps
Channel(s)                       : 2 channels
Sampling rate                    : 44.1 KHz
Compression mode                 : Lossy
Delay relative to video          : 40ms
Stream size                      : 83.6 MiB (10%)
Alignment                        : Aligned on interleaves
Interleave, duration             : 26 ms (0.65 video frame)
Interleave, preload duration     : 522 ms
Writing library                  : LAME3.98